<svg width="1258" height="993" viewBox="0 0 1258 993" fill="none" xmlns="http://www.w3.org/2000/svg">
<path fill-rule="evenodd" clip-rule="evenodd" d="M1111.57 820.798C1111.63 820.798 1111.66 820.867 1111.63 820.916L1005.8 971.455C996.309 984.961 980.833 993 964.323 993H540.153C499.085 993 475.054 946.731 498.672 913.134L548.437 842.343C557.932 828.836 573.408 820.798 589.918 820.798H1038.2C1054.71 820.798 1070.19 812.758 1079.68 799.249V799.249C1103.28 765.659 1079.25 719.411 1038.2 719.411H730.73C689.663 719.411 665.632 673.143 689.25 639.546L739.014 568.754C748.509 555.248 763.985 547.21 780.495 547.21H952.287C968.88 547.21 984.422 539.088 993.897 525.466V525.466C1017.27 491.86 993.223 445.839 952.287 445.839H719.012C702.549 445.839 687.111 453.832 677.608 467.276L587.519 594.72L515.045 697.816C505.55 711.322 490.074 719.36 473.564 719.36H156.914C115.846 719.36 91.8148 673.092 115.433 639.495L153.338 585.574L195.14 525.426C218.506 491.804 194.446 445.784 153.503 445.784H50.7934C9.72569 445.784 -14.3055 399.515 9.31245 365.919L74.1885 273.631C74.2101 273.601 74.2452 273.583 74.2827 273.583V273.583C74.3202 273.583 74.3554 273.564 74.3769 273.534L145.43 172.242C145.442 172.225 145.429 172.201 145.408 172.201V172.201C145.387 172.201 145.375 172.178 145.387 172.16L191.815 106.116L201.52 92.2807C201.523 92.2757 201.529 92.2729 201.535 92.2735V92.2735C201.542 92.2741 201.547 92.2714 201.551 92.2664L251.267 21.5448C260.762 8.03823 276.238 0.00012207 292.748 0.00012207H716.918C757.986 0.00012207 782.017 46.2685 758.399 79.8654L708.634 150.657C699.139 164.163 683.663 172.201 667.153 172.201H218.702C202.178 172.201 186.692 180.255 177.203 193.782V193.782C153.639 227.374 177.669 273.583 218.702 273.583H526.34C567.408 273.583 591.439 319.851 567.821 353.448L518.056 424.239C508.561 437.746 493.085 445.784 476.575 445.784H304.892C288.291 445.784 272.743 453.913 263.269 467.544V467.544C239.911 501.154 263.963 547.159 304.892 547.159H538.462C554.984 547.159 570.469 539.11 579.962 525.588L685.291 375.553C685.329 375.498 685.395 375.467 685.462 375.473V375.473C685.53 375.479 685.595 375.448 685.634 375.393L742.02 295.183C751.515 281.676 766.991 273.638 783.501 273.638H1100.15C1141.22 273.638 1165.25 319.906 1141.63 353.503L1120.62 383.391L1062.08 467.552C1038.7 501.172 1062.76 547.21 1103.71 547.21H1206.28C1247.34 547.21 1271.38 593.478 1247.76 627.075L1182.9 719.336C1182.87 719.383 1182.81 719.411 1182.76 719.411V719.411C1182.7 719.411 1182.64 719.439 1182.61 719.487L1111.51 820.68C1111.47 820.73 1111.51 820.798 1111.57 820.798V820.798Z" fill="#041126"/>
</svg>
