<svg width="1557" height="271" viewBox="0 0 1557 271" fill="none" xmlns="http://www.w3.org/2000/svg">
<path fill-rule="evenodd" clip-rule="evenodd" d="M302.47 223.556C302.487 223.556 302.496 223.575 302.487 223.588L273.691 264.551C271.107 268.227 266.896 270.414 262.403 270.414H146.982C135.807 270.414 129.267 257.824 135.694 248.682L149.236 229.419C151.819 225.743 156.031 223.556 160.523 223.556H282.506C286.998 223.556 291.209 221.368 293.792 217.692V217.692C300.214 208.552 293.677 195.968 282.506 195.968H198.839C187.665 195.968 181.125 183.378 187.552 174.236L201.094 154.973C203.677 151.297 207.889 149.11 212.381 149.11H259.127C263.642 149.11 267.871 146.9 270.45 143.193V143.193C276.811 134.048 270.266 121.525 259.127 121.525H195.651C191.171 121.525 186.97 123.7 184.384 127.358L160.088 161.728L140.149 190.092C137.565 193.767 133.354 195.954 128.862 195.954H42.6975C31.5226 195.954 24.9834 183.364 31.4101 174.222L41.6842 159.607L53.0989 143.182C59.4571 134.034 52.9102 121.511 41.769 121.511H13.8211C2.64615 121.511 -3.893 108.921 2.53371 99.7787L20.1875 74.6659C20.1932 74.6579 20.2024 74.6531 20.2123 74.6531V74.6531C20.2222 74.6531 20.2314 74.6482 20.2371 74.6402L39.5724 47.0761C39.5756 47.0715 39.5723 47.0652 39.5666 47.0652V47.0652C39.561 47.0652 39.5577 47.0588 39.5609 47.0542L52.02 29.331L54.8354 25.3174C54.8364 25.316 54.8381 25.3152 54.8399 25.3153V25.3153C54.8416 25.3155 54.8434 25.3147 54.8444 25.3133L68.3722 6.06976C70.9559 2.39447 75.1671 0.20721 79.6596 0.20721H195.081C206.256 0.20721 212.795 12.7974 206.369 21.9395L192.827 41.2026C190.243 44.8779 186.032 47.0652 181.54 47.0652H59.5107C55.0143 47.0652 50.8001 49.2566 48.218 52.9377V52.9377C41.8058 62.0788 48.3449 74.6531 59.5107 74.6531H143.223C154.398 74.6531 160.937 87.2432 154.51 96.3853L140.969 115.648C138.385 119.324 134.174 121.511 129.681 121.511H82.9637C78.4465 121.511 74.2156 123.723 71.6377 127.432V127.432C65.2817 136.578 71.8263 149.096 82.9637 149.096H146.52C151.016 149.096 155.23 146.906 157.813 143.227L186.475 102.399C186.485 102.384 186.503 102.376 186.521 102.377V102.377C186.54 102.379 186.558 102.371 186.568 102.356L201.912 80.5293C204.495 76.854 208.707 74.6668 213.199 74.6668H299.363C310.538 74.6668 317.077 87.257 310.651 96.399L304.953 104.504L289.004 127.434C282.641 136.583 289.187 149.11 300.331 149.11H328.241C339.416 149.11 345.955 161.7 339.529 170.842L321.88 195.947C321.871 195.96 321.856 195.968 321.841 195.968V195.968C321.825 195.968 321.81 195.976 321.801 195.989L302.454 223.524C302.444 223.537 302.454 223.556 302.47 223.556V223.556Z" fill="black"/>
<path d="M425.558 234.933V44.4784H555.653V67.919H450.171V125.934H541.589V149.375H450.171V210.906H557.997V234.933H425.558Z" fill="black"/>
<path d="M678.059 147.617C678.059 124.762 663.116 108.354 641.14 108.354C616.821 108.354 596.603 128.571 596.603 156.407V234.933H573.163V88.4295H593.087L596.31 115.386C603.929 97.2197 621.216 84.9134 644.657 84.9134C677.766 84.9134 701.5 110.405 701.5 145.859V234.933H678.059V147.617Z" fill="black"/>
<path d="M705.014 111.284V88.4295H714.39C723.473 88.4295 730.212 80.8113 730.212 70.263V50.9246H752.481V88.4295H784.712V111.284H752.481V196.256C752.481 207.097 760.392 214.423 772.405 214.423C776.507 214.423 781.196 213.837 784.712 212.664L785.298 236.105C780.61 237.57 774.456 238.449 768.889 238.449C745.156 238.449 729.04 223.506 729.04 200.944V111.284H705.014Z" fill="black"/>
<path d="M860.236 238.449C818.043 238.449 788.743 206.511 788.743 162.267C788.743 117.437 818.043 84.9134 859.064 84.9134C901.257 84.9134 928.214 118.902 928.214 165.783C928.214 166.955 928.214 168.42 927.921 170.764H814.527C818.043 196.842 836.21 215.009 860.236 215.009C879.575 215.009 897.155 202.702 900.671 185.708L927.042 193.912C920.596 219.697 893.053 238.449 860.236 238.449ZM815.113 147.91H903.015C898.327 122.125 878.989 107.768 857.892 107.768C836.21 107.768 819.508 123.883 815.113 147.91Z" fill="black"/>
<path d="M945.806 35.6882H969.247V234.933H945.806V35.6882Z" fill="black"/>
<path d="M1060.03 238.449C1017.54 238.449 986.774 206.218 986.774 161.681C986.774 117.144 1017.54 84.9134 1060.03 84.9134C1102.51 84.9134 1133.28 117.144 1133.28 161.681C1133.28 206.218 1102.51 238.449 1060.03 238.449ZM1011.39 161.681C1011.39 192.74 1031.9 215.009 1060.03 215.009C1088.15 215.009 1108.67 192.74 1108.67 161.681C1108.67 130.329 1088.15 107.768 1060.03 107.768C1031.9 107.768 1011.39 130.329 1011.39 161.681Z" fill="black"/>
<path d="M1203.65 234.933V44.4784H1285.11C1317.63 44.4784 1341.95 65.2819 1341.95 93.1176C1341.95 111.87 1330.82 127.985 1312.65 135.897C1334.92 143.222 1348.98 161.681 1348.98 183.364C1348.98 212.371 1324.37 234.933 1292.73 234.933H1203.65ZM1228.26 210.906H1289.21C1309.13 210.906 1323.79 198.014 1323.79 180.141C1323.79 162.267 1309.13 149.375 1289.21 149.375H1228.26V210.906ZM1228.26 125.934H1284.52C1303.57 125.934 1317.34 113.628 1317.34 96.9267C1317.34 80.2253 1303.57 67.919 1284.52 67.919H1228.26V125.934Z" fill="black"/>
<path d="M1368.21 88.4295H1391.65V234.933H1368.21V88.4295ZM1361.76 50.9246C1361.76 40.0833 1369.38 32.1721 1379.93 32.1721C1390.48 32.1721 1398.09 40.0833 1398.09 50.9246C1398.09 61.7658 1390.48 69.677 1379.93 69.677C1369.38 69.677 1361.76 61.7658 1361.76 50.9246Z" fill="black"/>
<path d="M1482.99 238.449C1440.5 238.449 1409.73 206.218 1409.73 161.681C1409.73 117.144 1440.5 84.9134 1482.99 84.9134C1525.47 84.9134 1556.24 117.144 1556.24 161.681C1556.24 206.218 1525.47 238.449 1482.99 238.449ZM1434.35 161.681C1434.35 192.74 1454.86 215.009 1482.99 215.009C1511.11 215.009 1531.63 192.74 1531.63 161.681C1531.63 130.329 1511.11 107.768 1482.99 107.768C1454.86 107.768 1434.35 130.329 1434.35 161.681Z" fill="black"/>
</svg>
